<?xml version="1.0" encoding="UTF-8"?>
<svg width="158px" height="158px" viewBox="0 0 158 158" version="1.1" xmlns="http://www.w3.org/2000/svg" xmlns:xlink="http://www.w3.org/1999/xlink">
    <!-- Generator: Sketch 40 (33762) - http://www.bohemiancoding.com/sketch -->
    <title>FreeRDP</title>
    <desc>Created with Sketch.</desc>
    <defs>
        <rect id="path-1" x="0" y="-7.10542736e-15" width="90.978356" height="90.978356" rx="45.489178"></rect>
        <mask id="mask-2" maskContentUnits="userSpaceOnUse" maskUnits="objectBoundingBox" x="-5" y="-5" width="100.978356" height="100.978356">
            <rect x="-5" y="-5" width="100.978356" height="100.978356" fill="white"></rect>
            <use xlink:href="#path-1" fill="black"></use>
        </mask>
        <mask id="mask-4" maskContentUnits="userSpaceOnUse" maskUnits="objectBoundingBox" x="-5" y="-5" width="100.978356" height="100.978356">
            <rect x="-5" y="-5" width="100.978356" height="100.978356" fill="white"></rect>
            <use xlink:href="#path-1" fill="black"></use>
        </mask>
    </defs>
    <g id="Juju-Icons" stroke="none" stroke-width="1" fill="none" fill-rule="evenodd">
        <g id="FreeRDP">
            <g id="Base" fill="#E7E9ED">
                <rect id="Rectangle" x="0" y="0" width="158" height="158"></rect>
            </g>
            <g id="Group-8" transform="translate(34.000000, 34.000000)">
                <mask id="mask-3" fill="white">
                    <use xlink:href="#path-1"></use>
                </mask>
                <g id="Mask" stroke="#263156" mask="url(#mask-2)" stroke-width="10">
                    <use mask="url(#mask-4)" xlink:href="#path-1"></use>
                </g>
                <g mask="url(#mask-3)">
                    <g transform="translate(18.000000, 7.000000)">
                        <path d="M28.4434463,21.7821981 C28.4434463,21.7821981 30.6456905,22.8850662 31.1962515,22.8850662 C31.7468126,22.8850662 38.9041062,38.8766543 38.9041062,38.8766543 C38.9041062,38.8766543 38.3535451,42.7366927 37.8029841,42.7366927 C37.252423,42.7366927 30.0951294,41.6338246 30.0951294,41.6338246 L27.8928853,33.9137476 L28.4434463,21.7821981 Z" id="Path-3" fill="#263156"></path>
                        <path d="M63.9901281,138.418651 C57.0567477,131.17097 54.0748737,129.129522 41.5205676,106.752045 C41.0210429,112.076524 44.4486988,117.421468 48.1609085,130.43705 C50.0820703,137.174795 49.031541,146.581601 46.4931861,155.35454 C46.7494542,156.207276 46.9887508,156.892306 47.205419,157.370975 C50.5001324,164.631162 61.0614311,166.040449 56.9441708,165.260481 C52.5366997,164.429348 50.889343,165.1627 48.6932446,166.288879 C48.6932446,166.288879 42.7289308,170.777109 47.1081163,176.019156 C47.6212181,176.633126 48.2678283,177.256759 49.0909409,177.88551 C50.8305088,179.215208 53.1137271,180.288517 55.2266657,180.291928 C57.9658488,180.297613 60.6133863,179.667726 62.6714507,179.30844 C63.6880373,179.131071 64.7572351,178.712094 65.8269987,178.120864 C69.9261561,175.854294 74.0253136,171.023265 75.1488199,167.239395 C76.7231996,161.940498 76.7543138,157.54607 74.6985123,152.781554 C73.0471956,148.956184 70.0523102,144.892617 65.4191195,139.929698 C64.9224233,139.398159 64.4483557,138.89732 63.9901281,138.418651" id="Fill-11" fill="#0B141F"></path>
                        <path d="M30.359726,39.5349667 C29.5105906,33.5749162 29.4449679,27.8070154 29.8664242,22.8315898 C29.9733439,21.5701102 30.1108122,20.3592262 30.2754348,19.2097392 C30.8258736,15.3684514 31.6727462,12.2048038 32.6372871,10.0883151 C35.0291223,4.83830879 36.3449711,-0.415676965 31.1879301,0.18749106 C24.0774815,1.01976061 11.0858791,20.8089019 7.94447396,30.7751023 C6.00520929,36.9261655 6.03406066,46.6757712 6.20999745,51.7648948 C11.9808373,44.2761743 21.4288126,39.8845881 30.4140345,40.0113614 C30.3976288,39.8533212 30.3823545,39.6958494 30.359726,39.5349667 Z" id="Fill-13" fill="#515B78"></path>
                        <path d="M21.797205,57.1163766 C27.11208,57.1163766 31.421117,61.4465659 31.421117,66.7880991 C31.421117,72.1296323 27.11208,76.4592531 21.797205,76.4592531 C16.4811985,76.4592531 12.1721615,72.1296323 12.1721615,66.7880991 C12.1721615,61.4465659 16.4811985,57.1163766 21.797205,57.1163766 Z M50.6525355,69.3445992 C52.3768292,69.6220224 51.1769516,71.6515321 51.1769516,71.6515321 L47.4398505,75.6952024 C47.4398505,75.6952024 47.3719649,75.8685919 47.2231824,76.0010501 C47.2978565,76.3552195 47.3108679,76.9703258 47.4160906,77.7798557 C47.5727931,78.9896027 47.67745,79.4102854 47.6248387,80.5154302 C47.5727931,81.619438 46.630315,82.5665426 46.630315,82.5665426 L45.2165978,84.6182234 C45.2165978,84.6182234 44.5886562,86.3015227 43.2275504,87.1957577 C41.8664446,88.0905611 42.6001745,86.6170347 42.6001745,86.6170347 L43.6993552,85.1440768 L46.2116873,81.0407151 L46.4741782,79.0424723 L46.4741782,76.0965564 C46.4741782,76.0965564 46.4866239,76.0772278 46.5030295,76.0516457 C46.4023326,75.9987761 46.29315,75.9237355 46.1737845,75.8162908 C45.5452772,75.2517801 41.9337644,74.4757911 41.218703,73.8532944 C40.504773,73.2307977 41.027492,72.176817 41.027492,72.176817 C41.027492,72.176817 43.6410867,68.2144408 50.6525355,69.3445992 Z M22.3238839,149.511371 C21.3627373,153.412351 26.1000192,177.193998 27.9866725,179.664088 C29.6328978,179.651012 31.1874775,179.487287 32.0518872,179.191104 C34.0873231,178.492998 36.2511759,176.421989 38.3301717,173.45845 C41.4981653,168.943501 44.4687251,162.351858 46.4928467,155.354881 C49.0312016,146.581373 50.0817309,137.175136 48.1605691,130.436822 C44.4489251,117.421241 41.0212691,112.076297 41.5207938,106.751818 C41.6899421,104.944588 42.3099637,103.1402 43.5273784,101.038492 C51.6029336,87.0911555 57.0252941,82.4727417 53.3956785,61.3686827 C53.1507247,59.9451835 52.8310968,58.6092317 52.4577261,57.3397932 C52.0639898,57.7752566 49.2801154,57.7934483 48.5101798,57.0925 C47.6944214,56.3494834 47.8200097,55.0970997 47.8200097,55.0970997 C47.8132212,54.6138831 48.0293236,54.5240616 48.2222318,54.4922262 C48.5056541,54.446747 50.1846907,54.3898979 51.2041058,54.4922262 C51.3155513,54.503596 51.4179454,54.5428218 51.5141166,54.5979653 C49.1024815,48.5736755 45.1436208,44.5709365 40.4663045,42.3077773 C40.5189159,42.1565589 40.5675672,42.0042036 40.6105614,41.8501427 C41.6922049,37.9571223 40.6105614,34.2755803 39.3535468,32.0658592 C38.0976636,29.8567065 33.7003753,22.9131681 32.4439264,20.387935 C31.8980132,19.2896121 31.0545349,19.0877981 30.2755479,19.2094549 C30.1109254,20.358942 29.9734571,21.5703944 29.8665373,22.8313055 C30.7585313,24.2209966 32.0150538,26.2009432 33.106568,28.0050445 C33.9948921,29.4733047 34.7739238,30.8250947 35.1582181,31.6474504 C37.4374763,36.5262327 37.2541853,39.7393389 37.03978,40.9900172 C34.9042129,40.363541 32.6747374,40.0429126 30.4141476,40.0110772 C21.4289257,39.8848724 11.9809504,44.2764586 6.21011059,51.7646105 C1.51638861,57.8542768 -0.747029696,65.987665 1.66403974,75.4126628 C2.03118757,76.8486689 3.96592654,82.7541443 6.5716013,87.1565319 C12.1721615,96.6150706 18.6761655,101.821872 15.7429428,112.904018 C11.3354717,129.548272 8.42714042,135.384392 9.02566493,144.207927 C9.45277836,150.50964 11.2093177,160.960763 16.4263243,170.417027 C18.2145436,173.658558 19.6033694,176.279298 21.2614746,177.971124 C21.4945484,178.209321 21.7321479,178.429327 21.9776674,178.629436 C22.5637463,179.106967 23.8886465,179.407699 25.4143748,179.556075 C20.71839,175.302063 20.9344924,152.159398 22.3238839,149.511371 Z" id="Fill-16" fill="#18A1FF"></path>
                        <path d="M21.6209853,59.8142602 C22.8236915,59.8142602 23.9562492,60.1030532 24.9666129,60.6033245 C25.2036467,60.6698378 25.4265377,60.7926317 25.6177487,60.9665897 C27.7697215,62.3116373 29.2066329,64.7027068 29.2066329,67.4365758 C29.2066329,71.6468137 25.8100912,75.0594599 21.6209853,75.0594599 C17.4318794,75.0594599 14.0364691,71.6468137 14.0364691,67.4365758 C14.0364691,63.2269064 17.4318794,59.8142602 21.6209853,59.8142602 Z M21.7974878,57.116206 C16.4814814,57.116206 12.1724443,61.4463953 12.1724443,66.7879286 C12.1724443,72.1294618 16.4814814,76.4596511 21.7974878,76.4596511 C27.1117971,76.4596511 31.4208342,72.1294618 31.4208342,66.7879286 C31.4208342,61.4463953 27.1117971,57.116206 21.7974878,57.116206 Z" id="Fill-19" fill="#263156"></path>
                        <path d="M23.3358316,62.9797269 C23.0739064,62.5851948 23.0071522,62.1230123 23.1044549,61.7046036 C21.7161948,62.1986215 20.7188426,63.5260459 20.7188426,65.0910992 C20.7188426,67.0768353 22.3215079,68.6867993 24.2969782,68.6867993 C26.2730142,68.6867993 27.8756796,67.0768353 27.8756796,65.0910992 C27.8756796,63.7869829 27.182681,62.6488657 26.1485573,62.0184101 C26.2068258,62.5789414 25.9799748,63.1417466 25.4968558,63.4652175 C24.7936744,63.9359273 23.8251734,63.7193326 23.3358316,62.9797269 Z" id="Fill-21" fill="#263156"></path>
                        <path d="M50.2568191,70.1976755 C50.2879334,70.6752072 49.3680838,71.1260199 48.2004518,71.20504 C47.0350828,71.2840601 46.0614904,70.9611577 46.0303762,70.483626 C45.9981306,70.0060943 46.9179801,69.5541447 48.0856121,69.475693 C49.2515469,69.3966729 50.2245735,69.7201438 50.2568191,70.1976755 Z M46.5033124,76.0514183 C46.486341,76.0770004 46.474461,76.0963291 46.474461,76.0963291 L46.474461,79.0422449 L46.2119701,81.0404877 L43.6990723,85.1438494 L42.5998917,86.6168073 C42.5998917,86.6168073 41.8667274,88.0903337 43.2272676,87.1960988 C44.5889391,86.3018638 45.2168807,84.6185645 45.2168807,84.6185645 L46.6305979,82.5663152 C46.6305979,82.5663152 47.5725102,81.6197791 47.6245559,80.5152028 C47.6771672,79.4106265 47.5725102,78.9893753 47.4163734,77.7801968 C47.3105851,76.9700984 47.2975737,76.3555606 47.2234652,76.0013912 C47.3722478,75.868933 47.4395677,75.694975 47.4395677,75.694975 L51.1772344,71.6513048 C51.1772344,71.6513048 52.377112,69.621795 50.6522526,69.3443718 C43.6408039,68.2147819 41.0277748,72.1771581 41.0277748,72.1771581 C41.0277748,72.1771581 40.5044902,73.2305703 41.2184202,73.853067 C41.9334816,74.4755637 45.54556,75.2521212 46.1735016,75.8160634 C46.2928671,75.9235081 46.4026155,75.9991172 46.5033124,76.0514183 Z" id="Fill-23" fill="#263156"></path>
                        <path d="M47.81984,55.0971565 C47.81984,55.0971565 47.6942517,56.3495403 48.5100101,57.0925569 C49.2799457,57.7935052 52.0643858,57.7753135 52.4575564,57.3392816 C52.4807507,57.3136995 52.4988535,57.287549 52.5045106,57.2591245 C52.5955904,56.8026269 52.3002882,55.0494033 51.5145126,54.5980222 C51.4177757,54.5428786 51.3153816,54.5036528 51.2039361,54.492283 C50.1850867,54.3899548 48.5054844,54.4468038 48.2220621,54.492283 C48.0297196,54.5241185 47.8130515,54.6139399 47.81984,55.0971565 Z" id="Fill-25" fill="#263156"></path>
                    </g>
                </g>
            </g>
        </g>
    </g>
</svg>